<svg width="90" height="90" viewBox="0 0 90 90" fill="none" xmlns="http://www.w3.org/2000/svg">
<rect width="90" height="90" rx="12" fill="#EDF6F9"/>
<g clip-path="url(#clip0_141_2986)">
<g clip-path="url(#clip1_141_2986)">
<g clip-path="url(#clip2_141_2986)">
<path d="M63 15H27C20.3726 15 15 20.3726 15 27V63C15 69.6274 20.3726 75 27 75H63C69.6274 75 75 69.6274 75 63V27C75 20.3726 69.6274 15 63 15Z" fill="#EDF6F9"/>
<mask id="mask0_141_2986" style="mask-type:luminance" maskUnits="userSpaceOnUse" x="34" y="30" width="22" height="30">
<path d="M56 30H34V60H56V30Z" fill="white"/>
</mask>
<g mask="url(#mask0_141_2986)">
<path d="M43.9583 30.3215C44.5885 29.8938 45.4135 29.8938 46.0437 30.3215L47.0635 31.0071C47.4073 31.2356 47.8083 31.3469 48.2151 31.3235L49.4354 31.2473C50.1916 31.2004 50.9021 31.6223 51.2401 32.3137L51.7901 33.4329C51.9734 33.8079 52.2713 34.1067 52.6323 34.2942L53.738 34.8625C54.414 35.2083 54.8265 35.9348 54.7807 36.7083L54.7062 37.9563C54.6833 38.3723 54.7922 38.7883 55.0156 39.134L55.6916 40.177C56.1099 40.8215 56.1099 41.6653 55.6916 42.3098L55.0156 43.3586C54.7922 43.7102 54.6833 44.1204 54.7062 44.5364L54.7807 45.7844C54.8265 46.5579 54.414 47.2844 53.738 47.6301L52.6437 48.1926C52.2771 48.3801 51.9849 48.6848 51.8015 49.054L51.2458 50.1848C50.9078 50.8762 50.1974 51.2981 49.4411 51.2512L48.2208 51.175C47.814 51.1516 47.4073 51.2629 47.0692 51.4915L46.0494 52.1829C45.4192 52.6106 44.5942 52.6106 43.964 52.1829L42.9385 51.4915C42.5948 51.2629 42.1937 51.1516 41.7869 51.175L40.5666 51.2512C39.8104 51.2981 39.1 50.8762 38.7619 50.1848L38.2119 49.0657C38.0286 48.6907 37.7307 48.3918 37.3698 48.2043L36.264 47.636C35.588 47.2903 35.1755 46.5637 35.2213 45.7903L35.2958 44.5422C35.3187 44.1262 35.2099 43.7102 34.9864 43.3645L34.3161 42.3157C33.8979 41.6711 33.8979 40.8274 34.3161 40.1829L34.9864 39.1399C35.2099 38.7883 35.3187 38.3782 35.2958 37.9622L35.2213 36.7141C35.1755 35.9407 35.588 35.2141 36.264 34.8684L37.3583 34.3059C37.725 34.1125 38.0229 33.8079 38.2062 33.4329L38.7562 32.3137C39.0942 31.6223 39.8047 31.2004 40.5609 31.2473L41.7812 31.3235C42.188 31.3469 42.5948 31.2356 42.9328 31.0071L43.9583 30.3215ZM49.5843 41.2493C49.5843 40.0061 49.1015 38.8138 48.2419 37.9347C47.3824 37.0556 46.2166 36.5618 45.001 36.5618C43.7854 36.5618 42.6196 37.0556 41.7601 37.9347C40.9006 38.8138 40.4177 40.0061 40.4177 41.2493C40.4177 42.4925 40.9006 43.6848 41.7601 44.5638C42.6196 45.4429 43.7854 45.9368 45.001 45.9368C46.2166 45.9368 47.3824 45.4429 48.2419 44.5638C49.1015 43.6848 49.5843 42.4925 49.5843 41.2493ZM34.0755 55.886L36.5448 49.8801C36.5562 49.886 36.5619 49.8918 36.5677 49.9036L37.1177 51.0227C37.788 52.3821 39.1802 53.2082 40.6698 53.1204L41.8901 53.0442C41.9015 53.0442 41.9187 53.0442 41.9302 53.0559L42.95 53.7473C43.2422 53.9407 43.5515 54.093 43.8724 54.1985L41.7182 59.4309C41.5864 59.7532 41.2942 59.97 40.9562 59.9993C40.6182 60.0286 40.2916 59.8704 40.1083 59.5774L38.2635 56.6887L35.0494 57.175C34.7229 57.2219 34.3963 57.0872 34.1901 56.8235C33.9838 56.5598 33.9437 56.1965 34.0698 55.886H34.0755ZM48.2838 59.425L46.1297 54.1985C46.4505 54.093 46.7599 53.9465 47.0521 53.7473L48.0718 53.0559C48.0833 53.05 48.0948 53.0442 48.1119 53.0442L49.3323 53.1204C50.8218 53.2082 52.214 52.3821 52.8843 51.0227L53.4343 49.9036C53.4401 49.8918 53.4458 49.886 53.4573 49.8801L55.9323 55.886C56.0583 56.1965 56.0125 56.5539 55.8119 56.8235C55.6114 57.093 55.2791 57.2278 54.9526 57.175L51.7385 56.6887L49.8937 59.5715C49.7104 59.8645 49.3838 60.0227 49.0458 59.9934C48.7078 59.9641 48.4156 59.7415 48.2838 59.425Z" fill="url(#paint0_linear_141_2986)"/>
</g>
</g>
</g>
</g>
<defs>
<linearGradient id="paint0_linear_141_2986" x1="49.1935" y1="31.1547" x2="40.4567" y2="57.2254" gradientUnits="userSpaceOnUse">
<stop stop-color="#83C5BE"/>
<stop offset="1" stop-color="#006D77"/>
</linearGradient>
<clipPath id="clip0_141_2986">
<rect width="60" height="60" fill="white" transform="translate(15 15)"/>
</clipPath>
<clipPath id="clip1_141_2986">
<rect width="60" height="60" fill="white" transform="translate(15 15)"/>
</clipPath>
<clipPath id="clip2_141_2986">
<rect width="60" height="60" fill="white" transform="translate(15 15)"/>
</clipPath>
</defs>
</svg>
