
            <svg width="984" height="55" viewBox="0 0 984 55" fill="none" xmlns="http://www.w3.org/2000/svg">
                <path d="M1.01578 19.62L0.535781 3H7.01578L6.47578 19.62H1.01578ZM12.5958 19.62L12.1158 3H18.5958L18.0558 19.62H12.5958ZM19.0828 45L37.9828 3H45.6628L64.6228 45H56.4628L40.2028 7.14H43.3228L27.1228 45H19.0828ZM27.7828 35.28L29.8828 29.16H52.5628L54.6628 35.28H27.7828ZM81.0113 45.42C77.4913 45.42 74.7713 44.52 72.8512 42.72C70.9313 40.88 69.9713 38.18 69.9713 34.62V5.88H77.4713V34.44C77.4713 35.96 77.8513 37.14 78.6113 37.98C79.4113 38.82 80.5113 39.24 81.9113 39.24C83.5913 39.24 84.9913 38.8 86.1113 37.92L88.2113 43.26C87.3313 43.98 86.2513 44.52 84.9713 44.88C83.6913 45.24 82.3713 45.42 81.0113 45.42ZM64.6913 19.2V13.2H86.0513V19.2H64.6913ZM111.683 45V3H119.483V38.4H141.443V45H111.683ZM166.68 45V38.52L166.26 37.14V25.8C166.26 23.6 165.6 21.9 164.28 20.7C162.96 19.46 160.96 18.84 158.28 18.84C156.48 18.84 154.7 19.12 152.94 19.68C151.22 20.24 149.76 21.02 148.56 22.02L145.62 16.56C147.34 15.24 149.38 14.26 151.74 13.62C154.14 12.94 156.62 12.6 159.18 12.6C163.82 12.6 167.4 13.72 169.92 15.96C172.48 18.16 173.76 21.58 173.76 26.22V45H166.68ZM156.6 45.42C154.2 45.42 152.1 45.02 150.3 44.22C148.5 43.38 147.1 42.24 146.1 40.8C145.14 39.32 144.66 37.66 144.66 35.82C144.66 34.02 145.08 32.4 145.92 30.96C146.8 29.52 148.22 28.38 150.18 27.54C152.14 26.7 154.74 26.28 157.98 26.28H167.28V31.26H158.52C155.96 31.26 154.24 31.68 153.36 32.52C152.48 33.32 152.04 34.32 152.04 35.52C152.04 36.88 152.58 37.96 153.66 38.76C154.74 39.56 156.24 39.96 158.16 39.96C160 39.96 161.64 39.54 163.08 38.7C164.56 37.86 165.62 36.62 166.26 34.98L167.52 39.48C166.8 41.36 165.5 42.82 163.62 43.86C161.78 44.9 159.44 45.42 156.6 45.42ZM201.145 45.42C198.425 45.42 196.005 44.82 193.885 43.62C191.765 42.42 190.085 40.62 188.845 38.22C187.645 35.78 187.045 32.7 187.045 28.98C187.045 25.22 187.665 22.14 188.905 19.74C190.185 17.34 191.885 15.56 194.005 14.4C196.165 13.2 198.545 12.6 201.145 12.6C204.305 12.6 207.085 13.28 209.485 14.64C211.925 16 213.845 17.9 215.245 20.34C216.685 22.78 217.405 25.66 217.405 28.98C217.405 32.3 216.685 35.18 215.245 37.62C213.845 40.06 211.925 41.98 209.485 43.38C207.085 44.74 204.305 45.42 201.145 45.42ZM183.385 45V0.479997H190.885V20.4L190.285 28.92L190.525 37.44V45H183.385ZM200.305 39C202.105 39 203.705 38.6 205.105 37.8C206.545 37 207.685 35.84 208.525 34.32C209.365 32.8 209.785 31.02 209.785 28.98C209.785 26.9 209.365 25.12 208.525 23.64C207.685 22.12 206.545 20.96 205.105 20.16C203.705 19.36 202.105 18.96 200.305 18.96C198.505 18.96 196.885 19.36 195.445 20.16C194.005 20.96 192.865 22.12 192.025 23.64C191.185 25.12 190.765 26.9 190.765 28.98C190.765 31.02 191.185 32.8 192.025 34.32C192.865 35.84 194.005 37 195.445 37.8C196.885 38.6 198.505 39 200.305 39ZM223.484 31.44V25.2H239.984V31.44H223.484ZM248.91 45V3H267.27C271.83 3 275.83 3.88 279.27 5.64C282.71 7.4 285.39 9.84 287.31 12.96C289.23 16.08 290.19 19.76 290.19 24C290.19 28.2 289.23 31.88 287.31 35.04C285.39 38.16 282.71 40.6 279.27 42.36C275.83 44.12 271.83 45 267.27 45H248.91ZM256.71 38.4H266.91C270.07 38.4 272.79 37.8 275.07 36.6C277.39 35.4 279.17 33.72 280.41 31.56C281.69 29.4 282.33 26.88 282.33 24C282.33 21.08 281.69 18.56 280.41 16.44C279.17 14.28 277.39 12.6 275.07 11.4C272.79 10.2 270.07 9.6 266.91 9.6H256.71V38.4ZM294.608 54.06L298.088 40.8L299.108 45.24C297.708 45.24 296.528 44.82 295.568 43.98C294.648 43.1 294.188 41.92 294.188 40.44C294.188 38.92 294.648 37.72 295.568 36.84C296.528 35.92 297.688 35.46 299.048 35.46C300.448 35.46 301.608 35.92 302.528 36.84C303.448 37.76 303.908 38.96 303.908 40.44C303.908 40.84 303.868 41.28 303.788 41.76C303.708 42.2 303.568 42.72 303.368 43.32C303.208 43.92 302.928 44.68 302.528 45.6L299.468 54.06H294.608ZM358.058 3H365.858V45H358.058V3ZM336.338 45H328.538V3H336.338V45ZM358.658 27H335.678V20.34H358.658V27ZM391.453 45.42C387.893 45.42 384.773 44.72 382.093 43.32C379.453 41.88 377.393 39.92 375.913 37.44C374.473 34.96 373.753 32.14 373.753 28.98C373.753 25.78 374.453 22.96 375.853 20.52C377.293 18.04 379.253 16.1 381.733 14.7C384.253 13.3 387.113 12.6 390.313 12.6C393.433 12.6 396.213 13.28 398.653 14.64C401.093 16 403.013 17.92 404.413 20.4C405.813 22.88 406.513 25.8 406.513 29.16C406.513 29.48 406.493 29.84 406.453 30.24C406.453 30.64 406.433 31.02 406.393 31.38H379.693V26.4H402.433L399.493 27.96C399.533 26.12 399.153 24.5 398.353 23.1C397.553 21.7 396.453 20.6 395.053 19.8C393.693 19 392.113 18.6 390.313 18.6C388.473 18.6 386.853 19 385.453 19.8C384.093 20.6 383.013 21.72 382.213 23.16C381.453 24.56 381.073 26.22 381.073 28.14V29.34C381.073 31.26 381.513 32.96 382.393 34.44C383.273 35.92 384.513 37.06 386.113 37.86C387.713 38.66 389.553 39.06 391.633 39.06C393.433 39.06 395.053 38.78 396.493 38.22C397.933 37.66 399.213 36.78 400.333 35.58L404.353 40.2C402.913 41.88 401.093 43.18 398.893 44.1C396.733 44.98 394.253 45.42 391.453 45.42ZM432.578 45V38.52L432.158 37.14V25.8C432.158 23.6 431.498 21.9 430.178 20.7C428.858 19.46 426.858 18.84 424.178 18.84C422.378 18.84 420.598 19.12 418.838 19.68C417.118 20.24 415.658 21.02 414.458 22.02L411.518 16.56C413.238 15.24 415.278 14.26 417.638 13.62C420.038 12.94 422.518 12.6 425.078 12.6C429.718 12.6 433.298 13.72 435.818 15.96C438.378 18.16 439.658 21.58 439.658 26.22V45H432.578ZM422.498 45.42C420.098 45.42 417.998 45.02 416.198 44.22C414.398 43.38 412.998 42.24 411.998 40.8C411.038 39.32 410.558 37.66 410.558 35.82C410.558 34.02 410.978 32.4 411.818 30.96C412.698 29.52 414.118 28.38 416.078 27.54C418.038 26.7 420.638 26.28 423.878 26.28H433.178V31.26H424.418C421.858 31.26 420.138 31.68 419.258 32.52C418.378 33.32 417.938 34.32 417.938 35.52C417.938 36.88 418.478 37.96 419.558 38.76C420.638 39.56 422.138 39.96 424.058 39.96C425.898 39.96 427.538 39.54 428.978 38.7C430.458 37.86 431.518 36.62 432.158 34.98L433.418 39.48C432.698 41.36 431.398 42.82 429.518 43.86C427.678 44.9 425.338 45.42 422.498 45.42ZM449.283 45V0.479997H456.783V45H449.283ZM480.269 45.42C476.749 45.42 474.029 44.52 472.109 42.72C470.189 40.88 469.229 38.18 469.229 34.62V5.88H476.729V34.44C476.729 35.96 477.109 37.14 477.869 37.98C478.669 38.82 479.769 39.24 481.169 39.24C482.849 39.24 484.249 38.8 485.369 37.92L487.469 43.26C486.589 43.98 485.509 44.52 484.229 44.88C482.949 45.24 481.629 45.42 480.269 45.42ZM463.949 19.2V13.2H485.309V19.2H463.949ZM511.819 12.6C514.379 12.6 516.659 13.1 518.659 14.1C520.699 15.1 522.299 16.64 523.459 18.72C524.619 20.76 525.199 23.4 525.199 26.64V45H517.699V27.6C517.699 24.76 517.019 22.64 515.659 21.24C514.339 19.84 512.479 19.14 510.079 19.14C508.319 19.14 506.759 19.5 505.399 20.22C504.039 20.94 502.979 22.02 502.219 23.46C501.499 24.86 501.139 26.64 501.139 28.8V45H493.639V0.479997H501.139V21.6L499.519 18.96C500.639 16.92 502.259 15.36 504.379 14.28C506.539 13.16 509.019 12.6 511.819 12.6ZM571.455 45.6C568.255 45.6 565.275 45.08 562.515 44.04C559.795 42.96 557.415 41.46 555.375 39.54C553.375 37.58 551.815 35.28 550.695 32.64C549.575 30 549.015 27.12 549.015 24C549.015 20.88 549.575 18 550.695 15.36C551.815 12.72 553.395 10.44 555.435 8.52C557.475 6.56 559.855 5.06 562.575 4.02C565.295 2.94 568.275 2.4 571.515 2.4C574.955 2.4 578.095 3 580.935 4.2C583.775 5.36 586.175 7.1 588.135 9.42L583.095 14.16C581.575 12.52 579.875 11.3 577.995 10.5C576.115 9.66 574.075 9.24 571.875 9.24C569.675 9.24 567.655 9.6 565.815 10.32C564.015 11.04 562.435 12.06 561.075 13.38C559.755 14.7 558.715 16.26 557.955 18.06C557.235 19.86 556.875 21.84 556.875 24C556.875 26.16 557.235 28.14 557.955 29.94C558.715 31.74 559.755 33.3 561.075 34.62C562.435 35.94 564.015 36.96 565.815 37.68C567.655 38.4 569.675 38.76 571.875 38.76C574.075 38.76 576.115 38.36 577.995 37.56C579.875 36.72 581.575 35.46 583.095 33.78L588.135 38.58C586.175 40.86 583.775 42.6 580.935 43.8C578.095 45 574.935 45.6 571.455 45.6ZM608.058 45.42C604.778 45.42 601.858 44.72 599.298 43.32C596.738 41.88 594.718 39.92 593.238 37.44C591.758 34.96 591.018 32.14 591.018 28.98C591.018 25.78 591.758 22.96 593.238 20.52C594.718 18.04 596.738 16.1 599.298 14.7C601.858 13.3 604.778 12.6 608.058 12.6C611.378 12.6 614.318 13.3 616.878 14.7C619.478 16.1 621.498 18.02 622.938 20.46C624.418 22.9 625.158 25.74 625.158 28.98C625.158 32.14 624.418 34.96 622.938 37.44C621.498 39.92 619.478 41.88 616.878 43.32C614.318 44.72 611.378 45.42 608.058 45.42ZM608.058 39C609.898 39 611.538 38.6 612.978 37.8C614.418 37 615.538 35.84 616.338 34.32C617.178 32.8 617.598 31.02 617.598 28.98C617.598 26.9 617.178 25.12 616.338 23.64C615.538 22.12 614.418 20.96 612.978 20.16C611.538 19.36 609.918 18.96 608.118 18.96C606.278 18.96 604.638 19.36 603.198 20.16C601.798 20.96 600.678 22.12 599.838 23.64C598.998 25.12 598.578 26.9 598.578 28.98C598.578 31.02 598.998 32.8 599.838 34.32C600.678 35.84 601.798 37 603.198 37.8C604.638 38.6 606.258 39 608.058 39ZM672.77 12.6C675.33 12.6 677.59 13.1 679.55 14.1C681.55 15.1 683.11 16.64 684.23 18.72C685.35 20.76 685.91 23.4 685.91 26.64V45H678.41V27.6C678.41 24.76 677.79 22.64 676.55 21.24C675.31 19.84 673.53 19.14 671.21 19.14C669.57 19.14 668.11 19.5 666.83 20.22C665.59 20.94 664.61 22 663.89 23.4C663.21 24.8 662.87 26.58 662.87 28.74V45H655.37V27.6C655.37 24.76 654.75 22.64 653.51 21.24C652.27 19.84 650.49 19.14 648.17 19.14C646.53 19.14 645.07 19.5 643.79 20.22C642.55 20.94 641.57 22 640.85 23.4C640.17 24.8 639.83 26.58 639.83 28.74V45H632.33V12.96H639.47V21.48L638.21 18.96C639.29 16.88 640.85 15.3 642.89 14.22C644.97 13.14 647.33 12.6 649.97 12.6C652.97 12.6 655.57 13.34 657.77 14.82C660.01 16.3 661.49 18.54 662.21 21.54L659.27 20.52C660.31 18.12 662.03 16.2 664.43 14.76C666.83 13.32 669.61 12.6 672.77 12.6ZM710.613 45.42C707.053 45.42 703.933 44.72 701.253 43.32C698.613 41.88 696.553 39.92 695.073 37.44C693.633 34.96 692.913 32.14 692.913 28.98C692.913 25.78 693.613 22.96 695.013 20.52C696.453 18.04 698.413 16.1 700.893 14.7C703.413 13.3 706.273 12.6 709.473 12.6C712.593 12.6 715.373 13.28 717.813 14.64C720.253 16 722.173 17.92 723.573 20.4C724.973 22.88 725.673 25.8 725.673 29.16C725.673 29.48 725.653 29.84 725.613 30.24C725.613 30.64 725.593 31.02 725.553 31.38H698.853V26.4H721.593L718.653 27.96C718.693 26.12 718.313 24.5 717.513 23.1C716.713 21.7 715.613 20.6 714.213 19.8C712.853 19 711.273 18.6 709.473 18.6C707.633 18.6 706.013 19 704.613 19.8C703.253 20.6 702.173 21.72 701.373 23.16C700.613 24.56 700.233 26.22 700.233 28.14V29.34C700.233 31.26 700.673 32.96 701.553 34.44C702.433 35.92 703.673 37.06 705.273 37.86C706.873 38.66 708.713 39.06 710.793 39.06C712.593 39.06 714.213 38.78 715.653 38.22C717.093 37.66 718.373 36.78 719.493 35.58L723.513 40.2C722.073 41.88 720.253 43.18 718.053 44.1C715.893 44.98 713.413 45.42 710.613 45.42ZM742.777 45.42C740.097 45.42 737.517 45.08 735.037 44.4C732.597 43.68 730.657 42.82 729.217 41.82L732.097 36.12C733.537 37.04 735.257 37.8 737.257 38.4C739.257 39 741.257 39.3 743.257 39.3C745.617 39.3 747.317 38.98 748.357 38.34C749.437 37.7 749.977 36.84 749.977 35.76C749.977 34.88 749.617 34.22 748.897 33.78C748.177 33.3 747.237 32.94 746.077 32.7C744.917 32.46 743.617 32.24 742.177 32.04C740.777 31.84 739.357 31.58 737.917 31.26C736.517 30.9 735.237 30.4 734.077 29.76C732.917 29.08 731.977 28.18 731.257 27.06C730.537 25.94 730.177 24.46 730.177 22.62C730.177 20.58 730.757 18.82 731.917 17.34C733.077 15.82 734.697 14.66 736.777 13.86C738.897 13.02 741.397 12.6 744.277 12.6C746.437 12.6 748.617 12.84 750.817 13.32C753.017 13.8 754.837 14.48 756.277 15.36L753.397 21.06C751.877 20.14 750.337 19.52 748.777 19.2C747.257 18.84 745.737 18.66 744.217 18.66C741.937 18.66 740.237 19 739.117 19.68C738.037 20.36 737.497 21.22 737.497 22.26C737.497 23.22 737.857 23.94 738.577 24.42C739.297 24.9 740.237 25.28 741.397 25.56C742.557 25.84 743.837 26.08 745.237 26.28C746.677 26.44 748.097 26.7 749.497 27.06C750.897 27.42 752.177 27.92 753.337 28.56C754.537 29.16 755.497 30.02 756.217 31.14C756.937 32.26 757.297 33.72 757.297 35.52C757.297 37.52 756.697 39.26 755.497 40.74C754.337 42.22 752.677 43.38 750.517 44.22C748.357 45.02 745.777 45.42 742.777 45.42ZM810.578 3H818.378V45H810.578V3ZM788.858 45H781.058V3H788.858V45ZM811.178 27H788.198V20.34H811.178V27ZM843.312 45.42C840.032 45.42 837.112 44.72 834.552 43.32C831.992 41.88 829.972 39.92 828.492 37.44C827.012 34.96 826.272 32.14 826.272 28.98C826.272 25.78 827.012 22.96 828.492 20.52C829.972 18.04 831.992 16.1 834.552 14.7C837.112 13.3 840.032 12.6 843.312 12.6C846.632 12.6 849.572 13.3 852.132 14.7C854.732 16.1 856.752 18.02 858.192 20.46C859.672 22.9 860.412 25.74 860.412 28.98C860.412 32.14 859.672 34.96 858.192 37.44C856.752 39.92 854.732 41.88 852.132 43.32C849.572 44.72 846.632 45.42 843.312 45.42ZM843.312 39C845.152 39 846.792 38.6 848.232 37.8C849.672 37 850.792 35.84 851.592 34.32C852.432 32.8 852.852 31.02 852.852 28.98C852.852 26.9 852.432 25.12 851.592 23.64C850.792 22.12 849.672 20.96 848.232 20.16C846.792 19.36 845.172 18.96 843.372 18.96C841.532 18.96 839.892 19.36 838.452 20.16C837.052 20.96 835.932 22.12 835.092 23.64C834.252 25.12 833.832 26.9 833.832 28.98C833.832 31.02 834.252 32.8 835.092 34.32C835.932 35.84 837.052 37 838.452 37.8C839.892 38.6 841.512 39 843.312 39ZM908.024 12.6C910.584 12.6 912.844 13.1 914.804 14.1C916.804 15.1 918.364 16.64 919.484 18.72C920.604 20.76 921.164 23.4 921.164 26.64V45H913.664V27.6C913.664 24.76 913.044 22.64 911.804 21.24C910.564 19.84 908.784 19.14 906.464 19.14C904.824 19.14 903.364 19.5 902.084 20.22C900.844 20.94 899.864 22 899.144 23.4C898.464 24.8 898.124 26.58 898.124 28.74V45H890.624V27.6C890.624 24.76 890.004 22.64 888.764 21.24C887.524 19.84 885.744 19.14 883.424 19.14C881.784 19.14 880.324 19.5 879.044 20.22C877.804 20.94 876.824 22 876.104 23.4C875.424 24.8 875.084 26.58 875.084 28.74V45H867.584V12.96H874.724V21.48L873.464 18.96C874.544 16.88 876.104 15.3 878.144 14.22C880.224 13.14 882.584 12.6 885.224 12.6C888.224 12.6 890.824 13.34 893.024 14.82C895.264 16.3 896.744 18.54 897.464 21.54L894.524 20.52C895.564 18.12 897.284 16.2 899.684 14.76C902.084 13.32 904.864 12.6 908.024 12.6ZM945.867 45.42C942.307 45.42 939.187 44.72 936.507 43.32C933.867 41.88 931.807 39.92 930.327 37.44C928.887 34.96 928.167 32.14 928.167 28.98C928.167 25.78 928.867 22.96 930.267 20.52C931.707 18.04 933.667 16.1 936.147 14.7C938.667 13.3 941.527 12.6 944.727 12.6C947.847 12.6 950.627 13.28 953.067 14.64C955.507 16 957.427 17.92 958.827 20.4C960.227 22.88 960.927 25.8 960.927 29.16C960.927 29.48 960.907 29.84 960.867 30.24C960.867 30.64 960.847 31.02 960.807 31.38H934.107V26.4H956.847L953.907 27.96C953.947 26.12 953.567 24.5 952.767 23.1C951.967 21.7 950.867 20.6 949.467 19.8C948.107 19 946.527 18.6 944.727 18.6C942.887 18.6 941.267 19 939.867 19.8C938.507 20.6 937.427 21.72 936.627 23.16C935.867 24.56 935.487 26.22 935.487 28.14V29.34C935.487 31.26 935.927 32.96 936.807 34.44C937.687 35.92 938.927 37.06 940.527 37.86C942.127 38.66 943.967 39.06 946.047 39.06C947.847 39.06 949.467 38.78 950.907 38.22C952.347 37.66 953.627 36.78 954.747 35.58L958.767 40.2C957.327 41.88 955.507 43.18 953.307 44.1C951.147 44.98 948.667 45.42 945.867 45.42ZM965.879 19.62L965.399 3H971.879L971.339 19.62H965.879ZM977.459 19.62L976.979 3H983.459L982.919 19.62H977.459Z" fill="url(#paint0_linear_550_244)" />
                <defs>
                    <linearGradient id="paint0_linear_550_244" x1="-3" y1="23.5" x2="987" y2="23.5" gradientUnits="userSpaceOnUse">
                        <stop stop-color="#006D77" />
                        <stop offset="1" stop-color="#E29578" />
                    </linearGradient>
                </defs>
            </svg>