<svg width="327" height="337" viewBox="0 0 327 337" fill="none" xmlns="http://www.w3.org/2000/svg">
    <g clip-path="url(#clip0_550_296)">
        <path d="M158.167 331C158.167 333.946 160.555 336.333 163.5 336.333C166.446 336.333 168.833 333.946 168.833 331C168.833 328.054 166.446 325.667 163.5 325.667C160.555 325.667 158.167 328.054 158.167 331ZM158.167 6.00002C158.167 8.94554 160.555 11.3333 163.5 11.3333C166.446 11.3333 168.833 8.94554 168.833 6.00002C168.833 3.0545 166.446 0.666687 163.5 0.666687C160.555 0.666687 158.167 3.0545 158.167 6.00002ZM325 167.5C325 257.254 253.238 330 163.5 330V332C254.359 332 327 258.343 327 167.5H325ZM2 167.5C2 77.7618 73.7457 7.00002 163.5 7.00002V5.00002C72.6573 5.00002 0 76.6411 0 167.5H2Z" fill="#006D77" />
    </g>
    <defs>
        <clipPath id="clip0_550_296">
            <rect width="327" height="337" fill="white" />
        </clipPath>
    </defs>
</svg>
