<svg width="172" height="172" viewBox="0 0 172 172" fill="none" xmlns="http://www.w3.org/2000/svg">
<rect y="27.8729" width="146.798" height="146.798" rx="10" transform="rotate(-10.9454 0 27.8729)" fill="url(#paint0_linear_105_91)"/>
<path fill-rule="evenodd" clip-rule="evenodd" d="M83.137 51.1628L116.426 72.4614L104.711 90.7698L71.423 69.4713L83.137 51.1628ZM87.544 58.9952L90.8748 61.1263L83.4198 72.778L80.091 70.6465L87.544 58.9952ZM95.8673 64.3206L99.1957 66.4502L91.7408 78.1018L88.4124 75.9723L95.8673 64.3206ZM104.191 69.646L107.519 71.7755L100.064 83.4272L96.7353 81.2957L104.191 69.646Z" fill="black"/>
<path fill-rule="evenodd" clip-rule="evenodd" d="M103.392 85.5568L76.7607 68.5174L50.1387 110.129C47.9351 113.659 47.2127 117.916 48.1283 121.976C49.0439 126.036 51.5236 129.571 55.0293 131.814C58.535 134.057 62.7838 134.827 66.8536 133.957C70.9235 133.087 74.486 130.647 76.7681 127.167L103.392 85.5568ZM97.9345 86.7556L73.4397 125.037C71.7327 127.658 69.0593 129.498 66.0018 130.156C62.9443 130.815 59.7504 130.239 57.1158 128.553C54.4813 126.867 52.6196 124.209 51.9362 121.157C51.2527 118.105 51.803 114.906 53.4671 112.258L77.9596 73.9753L97.9345 86.7556Z" fill="black"/>
<path fill-rule="evenodd" clip-rule="evenodd" d="M88.6811 90.2184L70.3707 78.5048L52.268 106.798L70.5769 118.514L88.6811 90.2184ZM83.2212 91.4176L69.3776 113.054L57.726 105.6L71.5696 83.9627L83.2212 91.4176Z" fill="black"/>
<path fill-rule="evenodd" clip-rule="evenodd" d="M76.9004 104.965C79.929 105.73 84.0907 108.393 85.2237 110.29L75.1056 126.102C73.1287 129.192 70.0052 131.37 66.4222 132.157C62.8392 132.944 59.0903 132.276 56.0002 130.299C52.91 128.322 50.7317 125.199 49.9445 121.616C49.1574 118.033 49.8258 114.284 51.8027 111.194L54.9993 106.203L69.9771 115.786L76.9004 104.965Z" fill="black"/>
<path fill-rule="evenodd" clip-rule="evenodd" d="M82.7788 110.443L73.4413 125.037C71.7468 127.686 69.0694 129.553 65.9982 130.228C62.9271 130.902 59.7136 130.329 57.0648 128.635C54.416 126.94 52.5489 124.263 51.8741 121.192C51.1993 118.121 51.7722 114.907 53.4667 112.258L55.5982 108.93L70.5763 118.515L77.7376 107.322C78.7727 107.746 79.7667 108.263 80.7074 108.869C81.5802 109.425 82.2816 109.975 82.7788 110.443ZM82.8384 105.538C81.1624 104.466 79.168 103.5 77.384 103.05L77.1269 102.985L75.8049 103.008L69.3771 113.055L54.3994 103.472L50.1364 110.129C47.9074 113.66 47.1662 117.93 48.0746 122.006C48.983 126.082 51.4673 129.633 54.9849 131.883C58.5025 134.134 62.7676 134.901 66.8489 134.017C70.9302 133.133 74.496 130.671 76.7677 127.167L87.4194 110.524L87.0112 109.43L86.9192 109.278C86.1083 107.917 84.4555 106.573 82.8384 105.538Z" fill="black"/>
<defs>
<linearGradient id="paint0_linear_105_91" x1="151.065" y1="27.8729" x2="7.43574e-06" y2="169.55" gradientUnits="userSpaceOnUse">
<stop offset="0.543918" stop-color="#D9D9D9" stop-opacity="0"/>
<stop offset="0.996664" stop-color="white" stop-opacity="0.29"/>
</linearGradient>
</defs>
</svg>
