<svg width="172" height="172" viewBox="0 0 172 172" fill="none" xmlns="http://www.w3.org/2000/svg">
<rect y="27.8729" width="146.798" height="146.798" rx="10" transform="rotate(-10.9454 0 27.8729)" fill="url(#paint0_linear_105_101)"/>
<path d="M97.169 92.2543L97.1926 92.2414C94.0345 93.6666 90.479 93.9495 87.1353 93.0415C83.6756 92.1203 80.6625 89.9859 78.6458 87.0277C78.6867 87.0879 78.719 87.1525 78.762 87.2127L75.7099 86.8944L75.2518 89.6948C77.4321 92.7836 80.477 95.1588 84.0036 96.5216L83.8229 97.1905C82.9454 100.462 83.2315 104.28 83.5347 108.323C83.9305 113.593 84.3413 119.043 82.1044 123.235C80.0009 127.169 75.8218 129.513 70.9092 129.513H70.8404C66.2612 129.492 62.1015 127.406 60.4884 124.319C59.3312 122.104 59.2043 119.09 59.0688 115.905C58.8516 110.758 58.6085 104.927 54.1907 99.8963L45.697 90.2153L42.4642 93.0523L50.9579 102.731C54.3735 106.626 54.5757 111.433 54.7714 116.086C54.9198 119.604 55.0725 123.244 56.6749 126.311C59.043 130.841 64.5943 133.787 70.821 133.815H70.9114C77.4392 133.815 83.0379 130.623 85.8985 125.261C88.7247 119.968 88.2472 113.61 87.8235 108.001C87.5482 104.336 87.288 100.871 87.9762 98.3089L88.1591 97.625C89.1291 97.7734 90.0991 97.868 91.067 97.868C93.7709 97.8564 96.4417 97.2737 98.9047 96.1581L99.3693 93.3469L97.169 92.2543Z" fill="#31373D"/>
<path d="M37.5495 97.3626C36.0444 95.647 35.2825 93.4037 35.4313 91.1263C35.5801 88.8489 36.6276 86.724 38.3432 85.2189C40.0588 83.7137 42.302 82.9518 44.5794 83.1006C46.8568 83.2495 48.9818 84.2969 50.4869 86.0125C51.992 87.7281 52.7539 89.9714 52.6051 92.2487C52.4562 94.5261 51.4088 96.6511 49.6932 98.1562C48.8437 98.9015 47.8558 99.4721 46.7858 99.8356C45.7158 100.199 44.5846 100.348 43.457 100.274C41.1796 100.126 39.0546 99.0782 37.5495 97.3626Z" fill="#99AAB5"/>
<path d="M40.7844 94.5256C40.3943 94.104 40.0926 93.6086 39.8971 93.0685C39.7016 92.5284 39.6162 91.9547 39.646 91.3811C39.6758 90.8075 39.8201 90.2456 40.0705 89.7287C40.3209 89.2118 40.6723 88.7503 41.104 88.3714C41.5356 87.9924 42.0388 87.7038 42.5838 87.5224C43.1287 87.3411 43.7045 87.2707 44.2772 87.3155C44.8498 87.3603 45.4076 87.5192 45.9178 87.7831C46.428 88.0469 46.8802 88.4102 47.2477 88.8516C47.9653 89.7134 48.3179 90.8214 48.2305 91.9394C48.1431 93.0574 47.6226 94.097 46.7798 94.8369C45.9371 95.5767 44.8388 95.9582 43.7189 95.9C42.5989 95.8419 41.546 95.3487 40.7844 94.5256Z" fill="#31373D"/>
<path d="M98.9198 96.1817L97.169 92.2543C99.2173 91.3447 101.036 89.988 102.492 88.2837C103.947 86.5795 105.003 84.571 105.581 82.4055L107.254 76.1745C107.548 75.0725 107.393 73.8989 106.824 72.9108C106.254 71.9227 105.316 71.2006 104.215 70.9028L105.334 66.7474C107.536 67.342 109.412 68.7857 110.551 70.7618C111.69 72.7379 111.999 75.0852 111.41 77.2887L109.736 83.5197C108.993 86.3038 107.635 88.8861 105.764 91.0771C103.892 93.2682 101.553 95.0124 98.9198 96.1817ZM75.2475 89.6991C73.5977 87.3764 72.4819 84.7177 71.9799 81.9132C71.4779 79.1088 71.6022 76.2281 72.3438 73.4774L74.0172 67.2463C74.6109 65.0441 76.054 63.1673 78.0298 62.0277C80.0057 60.8882 82.3529 60.579 84.5564 61.168L83.4401 65.3235C82.3383 65.0284 81.1644 65.1827 80.1764 65.7526C79.1883 66.3224 78.4668 67.2612 78.1705 68.3626L76.4971 74.5958C75.9193 76.7357 75.8223 78.9769 76.2132 81.1587C76.604 83.3404 77.473 85.4086 78.7577 87.2148L75.2475 89.6991Z" fill="#99AAB5"/>
<path d="M83.3669 69.7564C82.5407 69.5342 81.8365 68.9928 81.4093 68.2515C80.9822 67.5101 80.867 66.6294 81.0892 65.8031L82.7625 59.5721C82.99 58.7518 83.5325 58.0546 84.2718 57.6325C85.011 57.2104 85.8872 57.0976 86.7093 57.3186C87.5314 57.5397 88.2328 58.0767 88.6606 58.8126C89.0885 59.5486 89.2082 60.4238 88.9935 61.2476L87.3202 67.4786C87.098 68.3049 86.5566 69.0091 85.8153 69.4362C85.0739 69.8634 84.1932 69.9785 83.3669 69.7564ZM102.062 74.7786C101.236 74.5564 100.532 74.0151 100.105 73.2737C99.6774 72.5323 99.5622 71.6516 99.7844 70.8254L101.458 64.5943C101.68 63.7678 102.221 63.0633 102.963 62.636C103.705 62.2086 104.585 62.0933 105.412 62.3155C106.239 62.5377 106.943 63.0791 107.37 63.8207C107.798 64.5623 107.913 65.4433 107.691 66.2699L106.018 72.5009C105.795 73.3273 105.253 74.0315 104.511 74.4586C103.77 74.8857 102.889 75.0008 102.062 74.7786Z" fill="#31373D"/>
<defs>
<linearGradient id="paint0_linear_105_101" x1="151.065" y1="27.8729" x2="7.43574e-06" y2="169.55" gradientUnits="userSpaceOnUse">
<stop offset="0.543918" stop-color="#D9D9D9" stop-opacity="0"/>
<stop offset="0.996664" stop-color="white" stop-opacity="0.29"/>
</linearGradient>
</defs>
</svg>
