<svg width="172" height="172" viewBox="0 0 172 172" fill="none" xmlns="http://www.w3.org/2000/svg">
<rect y="27.873" width="146.798" height="146.798" rx="10" transform="rotate(-10.9454 0 27.873)" fill="url(#paint0_linear_105_118)"/>
<path d="M64.1868 59.3635H72.8159V65.0673C75.5621 64.899 78.222 65.0587 80.6122 65.5635C70.4731 69.5544 65.8069 79.8122 65.0433 81.4905L64.9958 81.5941C62.5171 81.2187 59.8335 80.9038 57.2944 80.9275C54.6755 81.1518 52.1364 81.538 47.9534 83.8937C47.3623 84.3122 46.5685 84.9939 45.4877 86.038C45.41 85.9798 45.3259 85.9302 45.2159 85.859C45.1062 85.7917 44.9976 85.7227 44.8901 85.6519C44.0748 85.1212 43.2291 84.6386 42.3575 84.2065C40.1657 83.1193 37.4778 82.1938 34.8438 82.1938V73.8258C39.3977 73.8258 43.4944 75.3725 46.288 76.7597C47.2566 77.2407 48.1066 77.7196 48.812 78.1468C49.4477 76.8068 50.2643 75.5605 51.2389 74.4428L46.4973 67.0067L54.093 62.073L58.4658 68.9331C60.2994 67.9959 62.2134 67.2248 64.1847 66.6292L64.1868 59.3635ZM87.3925 78.1123C84.2472 79.5706 81.5248 81.9651 79.0719 86.5774C79.0719 86.5774 73.627 84.0879 69.2089 82.7935C72.6002 75.9205 76.5436 72.0547 82.3618 69.3581C87.9901 66.7478 94.7013 66.0791 102.679 66.3573L102.299 76.6216C94.9429 76.367 90.7255 76.5677 87.3925 78.1123Z" fill="black"/>
<path d="M49.6922 87.8825C34.024 101.857 56.4056 136.794 74.313 136.794C92.2183 136.794 116.876 101.887 98.9338 85.8849C98.5603 85.5511 98.1892 85.2146 97.8207 84.8753C96.3365 83.5162 95.3506 82.6101 92.6131 80.9836C87.1077 80.9836 83.7899 86.4911 82.2798 89.8478C82.2041 90.0158 82.11 90.175 81.9993 90.3224L78.5154 100.008L77.262 104.515C77.1293 104.99 77.1636 105.497 77.3591 105.95L78.826 109.336L86.4131 108.456L86.9114 112.741L79.773 113.571L80.2368 120.369L75.9331 120.662L75.355 112.182L73.4005 107.662C72.8122 106.303 72.7079 104.783 73.1049 103.357L73.1416 103.223L68.7537 105.207L65.8846 112.458L61.8721 110.87L64.1458 105.128L57.221 103.497L58.209 99.2966L66.851 101.333L74.7358 97.7628L77.3893 90.3849C70.5551 87.1728 56.5199 81.7882 49.69 87.8782" fill="black"/>
<defs>
<linearGradient id="paint0_linear_105_118" x1="151.065" y1="27.873" x2="7.43574e-06" y2="169.55" gradientUnits="userSpaceOnUse">
<stop offset="0.543918" stop-color="#D9D9D9" stop-opacity="0"/>
<stop offset="0.996664" stop-color="white" stop-opacity="0.29"/>
</linearGradient>
</defs>
</svg>
